<svg width="256" height="256" viewBox="0 0 256 256" fill="none" xmlns="http://www.w3.org/2000/svg">
<rect width="256" height="256" rx="128" fill="#03265B"/>
<path d="M42.656 116.988C46.8267 116.988 50.1587 118.643 52.652 121.952C55.1453 125.216 56.392 129.976 56.392 136.232C56.392 140.493 55.78 144.075 54.556 146.976C53.332 149.832 51.6547 152.008 49.524 153.504C47.4387 154.955 45.036 155.68 42.316 155.68C39.6413 155.68 37.5333 155.204 35.992 154.252C34.496 153.3 33.2947 152.257 32.388 151.124H31.912C32.048 151.985 32.1613 152.892 32.252 153.844C32.3427 154.796 32.388 155.816 32.388 156.904V171.32H20.896V117.668H30.212L31.844 122.428H32.388C33.34 120.977 34.632 119.708 36.264 118.62C37.896 117.532 40.0267 116.988 42.656 116.988ZM38.644 126.032C36.332 126.032 34.7227 126.803 33.816 128.344C32.9093 129.84 32.4333 132.107 32.388 135.144V136.164C32.388 139.473 32.8413 142.012 33.748 143.78C34.6547 145.548 36.332 146.432 38.78 146.432C42.724 146.432 44.696 142.987 44.696 136.096C44.696 132.605 44.1973 130.067 43.2 128.48C42.2027 126.848 40.684 126.032 38.644 126.032ZM80.9873 116.92C85.8379 116.92 89.6006 118.053 92.2753 120.32C94.95 122.587 96.2873 125.896 96.2873 130.248V155H88.3313L86.0873 149.968H85.8153C84.2286 152.008 82.5513 153.481 80.7833 154.388C79.0153 155.249 76.5899 155.68 73.5073 155.68C70.1979 155.68 67.4553 154.705 65.2793 152.756C63.1033 150.807 62.0153 147.792 62.0153 143.712C62.0153 139.768 63.3979 136.844 66.1633 134.94C68.9739 132.991 73.0766 131.903 78.4713 131.676L84.8633 131.472V130.384C84.8633 128.571 84.3873 127.256 83.4353 126.44C82.5286 125.624 81.2593 125.216 79.6273 125.216C77.9953 125.216 76.2953 125.488 74.5273 126.032C72.7593 126.531 70.9686 127.165 69.1553 127.936L65.6873 120.32C67.7273 119.232 70.0393 118.393 72.6233 117.804C75.2073 117.215 77.9953 116.92 80.9873 116.92ZM81.3953 138.136C78.5393 138.227 76.5446 138.748 75.4113 139.7C74.2779 140.607 73.7113 141.853 73.7113 143.44C73.7113 144.845 74.1193 145.865 74.9353 146.5C75.7513 147.135 76.7939 147.452 78.0633 147.452C79.9673 147.452 81.5766 146.885 82.8913 145.752C84.2059 144.573 84.8633 142.987 84.8633 140.992V138L81.3953 138.136ZM132.822 143.712C132.822 147.384 131.53 150.308 128.946 152.484C126.408 154.615 122.418 155.68 116.978 155.68C114.349 155.68 112.037 155.521 110.042 155.204C108.093 154.887 106.121 154.32 104.126 153.504V144.256C106.302 145.253 108.569 146.024 110.926 146.568C113.284 147.067 115.278 147.316 116.91 147.316C118.633 147.316 119.88 147.089 120.65 146.636C121.421 146.183 121.806 145.548 121.806 144.732C121.806 144.143 121.602 143.621 121.194 143.168C120.832 142.715 120.061 142.216 118.882 141.672C117.749 141.083 116.049 140.312 113.782 139.36C111.561 138.408 109.725 137.433 108.274 136.436C106.869 135.439 105.804 134.26 105.078 132.9C104.398 131.495 104.058 129.749 104.058 127.664C104.058 124.128 105.418 121.476 108.138 119.708C110.904 117.895 114.553 116.988 119.086 116.988C121.489 116.988 123.756 117.237 125.886 117.736C128.017 118.235 130.216 119.005 132.482 120.048L129.218 127.8C127.36 126.984 125.546 126.327 123.778 125.828C122.056 125.329 120.492 125.08 119.086 125.08C116.457 125.08 115.142 125.76 115.142 127.12C115.142 127.619 115.324 128.095 115.686 128.548C116.094 128.956 116.842 129.409 117.93 129.908C119.064 130.407 120.696 131.109 122.826 132.016C124.957 132.877 126.77 133.807 128.266 134.804C129.762 135.756 130.896 136.935 131.666 138.34C132.437 139.745 132.822 141.536 132.822 143.712ZM157.089 116.92C161.94 116.92 165.702 118.053 168.377 120.32C171.052 122.587 172.389 125.896 172.389 130.248V155H164.433L162.189 149.968H161.917C160.33 152.008 158.653 153.481 156.885 154.388C155.117 155.249 152.692 155.68 149.609 155.68C146.3 155.68 143.557 154.705 141.381 152.756C139.205 150.807 138.117 147.792 138.117 143.712C138.117 139.768 139.5 136.844 142.265 134.94C145.076 132.991 149.178 131.903 154.573 131.676L160.965 131.472V130.384C160.965 128.571 160.489 127.256 159.537 126.44C158.63 125.624 157.361 125.216 155.729 125.216C154.097 125.216 152.397 125.488 150.629 126.032C148.861 126.531 147.07 127.165 145.257 127.936L141.789 120.32C143.829 119.232 146.141 118.393 148.725 117.804C151.309 117.215 154.097 116.92 157.089 116.92ZM157.497 138.136C154.641 138.227 152.646 138.748 151.513 139.7C150.38 140.607 149.813 141.853 149.813 143.44C149.813 144.845 150.221 145.865 151.037 146.5C151.853 147.135 152.896 147.452 154.165 147.452C156.069 147.452 157.678 146.885 158.993 145.752C160.308 144.573 160.965 142.987 160.965 140.992V138L157.497 138.136ZM193.556 155H182.064V103.32H193.556V155ZM219.496 116.988C224.755 116.988 228.926 118.439 232.008 121.34C235.091 124.196 236.632 128.412 236.632 133.988V139.292H213.036C213.127 141.74 213.92 143.689 215.416 145.14C216.912 146.591 219.043 147.316 221.808 147.316C224.166 147.316 226.319 147.089 228.268 146.636C230.263 146.183 232.303 145.457 234.388 144.46V152.96C232.53 153.912 230.558 154.592 228.472 155C226.432 155.453 223.894 155.68 220.856 155.68C217.094 155.68 213.739 155 210.792 153.64C207.891 152.28 205.602 150.195 203.924 147.384C202.292 144.528 201.476 140.924 201.476 136.572C201.476 132.175 202.224 128.525 203.72 125.624C205.216 122.723 207.302 120.569 209.976 119.164C212.696 117.713 215.87 116.988 219.496 116.988ZM219.7 124.944C217.932 124.944 216.459 125.511 215.28 126.644C214.147 127.732 213.467 129.477 213.24 131.88H226.092C226.047 129.931 225.503 128.299 224.46 126.984C223.418 125.624 221.831 124.944 219.7 124.944ZM233.504 103.592C232.779 104.227 231.85 104.997 230.716 105.904C229.583 106.811 228.359 107.763 227.044 108.76C225.775 109.757 224.528 110.709 223.304 111.616C222.126 112.477 221.083 113.203 220.176 113.792H212.56V112.908C213.286 112.047 214.17 111.049 215.212 109.916C216.255 108.737 217.275 107.536 218.272 106.312C219.27 105.043 220.108 103.909 220.788 102.912H233.504V103.592Z" fill="white"/>
</svg>
