<svg width="256" height="256" viewBox="0 0 256 256" fill="none" xmlns="http://www.w3.org/2000/svg">
<rect width="256" height="256" rx="128" fill="white"/>
<path d="M48.088 117.224C52.0133 117.224 55.1493 118.781 57.496 121.896C59.8427 124.968 61.016 129.448 61.016 135.336C61.016 139.347 60.44 142.717 59.288 145.448C58.136 148.136 56.5573 150.184 54.552 151.592C52.5893 152.957 50.328 153.64 47.768 153.64C45.2507 153.64 43.2667 153.192 41.816 152.296C40.408 151.4 39.2773 150.419 38.424 149.352H37.976C38.104 150.163 38.2107 151.016 38.296 151.912C38.3813 152.808 38.424 153.768 38.424 154.792V168.36H27.608V117.864H36.376L37.912 122.344H38.424C39.32 120.979 40.536 119.784 42.072 118.76C43.608 117.736 45.6133 117.224 48.088 117.224ZM44.312 125.736C42.136 125.736 40.6213 126.461 39.768 127.912C38.9147 129.32 38.4667 131.453 38.424 134.312V135.272C38.424 138.387 38.8507 140.776 39.704 142.44C40.5573 144.104 42.136 144.936 44.44 144.936C48.152 144.936 50.008 141.693 50.008 135.208C50.008 131.923 49.5387 129.533 48.6 128.04C47.6613 126.504 46.232 125.736 44.312 125.736ZM84.1645 117.16C88.7298 117.16 92.2712 118.227 94.7885 120.36C97.3058 122.493 98.5645 125.608 98.5645 129.704V153H91.0765L88.9645 148.264H88.7085C87.2152 150.184 85.6365 151.571 83.9725 152.424C82.3085 153.235 80.0258 153.64 77.1245 153.64C74.0098 153.64 71.4285 152.723 69.3805 150.888C67.3325 149.053 66.3085 146.216 66.3085 142.376C66.3085 138.664 67.6098 135.912 70.2125 134.12C72.8578 132.285 76.7192 131.261 81.7965 131.048L87.8125 130.856V129.832C87.8125 128.125 87.3645 126.888 86.4685 126.12C85.6152 125.352 84.4205 124.968 82.8845 124.968C81.3485 124.968 79.7485 125.224 78.0845 125.736C76.4205 126.205 74.7352 126.803 73.0285 127.528L69.7645 120.36C71.6845 119.336 73.8605 118.547 76.2925 117.992C78.7245 117.437 81.3485 117.16 84.1645 117.16ZM84.5485 137.128C81.8605 137.213 79.9832 137.704 78.9165 138.6C77.8498 139.453 77.3165 140.627 77.3165 142.12C77.3165 143.443 77.7005 144.403 78.4685 145C79.2365 145.597 80.2178 145.896 81.4125 145.896C83.2045 145.896 84.7192 145.363 85.9565 144.296C87.1938 143.187 87.8125 141.693 87.8125 139.816V137L84.5485 137.128ZM132.951 142.376C132.951 145.832 131.735 148.584 129.303 150.632C126.913 152.637 123.159 153.64 118.039 153.64C115.564 153.64 113.388 153.491 111.51 153.192C109.676 152.893 107.82 152.36 105.943 151.592V142.888C107.991 143.827 110.124 144.552 112.343 145.064C114.561 145.533 116.439 145.768 117.975 145.768C119.596 145.768 120.769 145.555 121.495 145.128C122.22 144.701 122.583 144.104 122.583 143.336C122.583 142.781 122.391 142.291 122.007 141.864C121.665 141.437 120.94 140.968 119.831 140.456C118.764 139.901 117.164 139.176 115.031 138.28C112.94 137.384 111.212 136.467 109.847 135.528C108.524 134.589 107.521 133.48 106.839 132.2C106.199 130.877 105.879 129.235 105.879 127.272C105.879 123.944 107.159 121.448 109.719 119.784C112.321 118.077 115.756 117.224 120.023 117.224C122.284 117.224 124.417 117.459 126.423 117.928C128.428 118.397 130.497 119.123 132.631 120.104L129.559 127.4C127.809 126.632 126.103 126.013 124.439 125.544C122.817 125.075 121.345 124.84 120.023 124.84C117.548 124.84 116.311 125.48 116.311 126.76C116.311 127.229 116.481 127.677 116.823 128.104C117.207 128.488 117.911 128.915 118.935 129.384C120.001 129.853 121.537 130.515 123.543 131.368C125.548 132.179 127.255 133.053 128.663 133.992C130.071 134.888 131.137 135.997 131.863 137.32C132.588 138.643 132.951 140.328 132.951 142.376ZM155.79 117.16C160.355 117.16 163.896 118.227 166.414 120.36C168.931 122.493 170.19 125.608 170.19 129.704V153H162.702L160.59 148.264H160.334C158.84 150.184 157.262 151.571 155.598 152.424C153.934 153.235 151.651 153.64 148.75 153.64C145.635 153.64 143.054 152.723 141.006 150.888C138.958 149.053 137.934 146.216 137.934 142.376C137.934 138.664 139.235 135.912 141.838 134.12C144.483 132.285 148.344 131.261 153.422 131.048L159.438 130.856V129.832C159.438 128.125 158.99 126.888 158.094 126.12C157.24 125.352 156.046 124.968 154.51 124.968C152.974 124.968 151.374 125.224 149.71 125.736C148.046 126.205 146.36 126.803 144.654 127.528L141.39 120.36C143.31 119.336 145.486 118.547 147.918 117.992C150.35 117.437 152.974 117.16 155.79 117.16ZM156.174 137.128C153.486 137.213 151.608 137.704 150.542 138.6C149.475 139.453 148.942 140.627 148.942 142.12C148.942 143.443 149.326 144.403 150.094 145C150.862 145.597 151.843 145.896 153.038 145.896C154.83 145.896 156.344 145.363 157.582 144.296C158.819 143.187 159.438 141.693 159.438 139.816V137L156.174 137.128ZM190.112 153H179.296V104.36H190.112V153ZM214.526 117.224C219.475 117.224 223.401 118.589 226.302 121.32C229.203 124.008 230.654 127.976 230.654 133.224V138.216H208.446C208.531 140.52 209.278 142.355 210.686 143.72C212.094 145.085 214.099 145.768 216.702 145.768C218.921 145.768 220.947 145.555 222.782 145.128C224.659 144.701 226.579 144.019 228.542 143.08V151.08C226.793 151.976 224.937 152.616 222.974 153C221.054 153.427 218.665 153.64 215.806 153.64C212.265 153.64 209.107 153 206.334 151.72C203.603 150.44 201.449 148.477 199.87 145.832C198.334 143.144 197.566 139.752 197.566 135.656C197.566 131.517 198.27 128.083 199.678 125.352C201.086 122.621 203.049 120.595 205.566 119.272C208.126 117.907 211.113 117.224 214.526 117.224ZM214.718 124.712C213.054 124.712 211.667 125.245 210.558 126.312C209.491 127.336 208.851 128.979 208.638 131.24H220.734C220.691 129.405 220.179 127.869 219.198 126.632C218.217 125.352 216.723 124.712 214.718 124.712ZM227.71 104.616C227.027 105.213 226.153 105.939 225.086 106.792C224.019 107.645 222.867 108.541 221.63 109.48C220.435 110.419 219.262 111.315 218.11 112.168C217.001 112.979 216.019 113.661 215.166 114.216H207.998V113.384C208.681 112.573 209.513 111.635 210.494 110.568C211.475 109.459 212.435 108.328 213.374 107.176C214.313 105.981 215.102 104.915 215.742 103.976H227.71V104.616Z" fill="#03265B"/>
</svg>